<svg xmlns="http://www.w3.org/2000/svg" viewBox="0 0 64 64" fill="none">
  <!-- Background -->
  <rect width="64" height="64" rx="12" fill="#0F172A"/>

  <!-- Sneaker Design -->
  <g transform="translate(8, 18)">
    <!-- Main shoe body -->
    <path d="M 8 18 Q 8 12 14 10 L 32 10 Q 38 10 42 14 L 46 18 Q 48 20 48 24 L 48 26 Q 48 28 46 28 L 8 28 Q 6 28 6 26 L 6 20 Q 6 18 8 18 Z"
          fill="#3B82F6"
          stroke="#60A5FA"
          stroke-width="0.5"/>

    <!-- Nike-style swoosh accent -->
    <path d="M 12 16 Q 20 14 28 16 Q 32 17 36 20"
          stroke="#FFFFFF"
          stroke-width="2"
          stroke-linecap="round"
          fill="none"
          opacity="0.9"/>

    <!-- Sole -->
    <ellipse cx="27" cy="28" rx="20" ry="2.5" fill="#1E293B" opacity="0.8"/>

    <!-- Laces detail -->
    <circle cx="18" cy="14" r="1.2" fill="#E2E8F0"/>
    <circle cx="24" cy="13" r="1.2" fill="#E2E8F0"/>
    <circle cx="30" cy="13" r="1.2" fill="#E2E8F0"/>

    <!-- Highlight -->
    <path d="M 36 15 Q 38 16 40 18"
          stroke="#60A5FA"
          stroke-width="1.5"
          stroke-linecap="round"
          fill="none"
          opacity="0.6"/>
  </g>
</svg>
